<svg xmlns="http://www.w3.org/2000/svg" version="1.1" xmlns:xlink="http://www.w3.org/1999/xlink" xmlns:svgjs="http://svgjs.com/svgjs" height="105.52000427246094" width="313.7261962890625"><defs id="SvgjsDefs3033"></defs><g id="SvgjsG3034" rel="mainfill" name="main_text" xmlns:name="main_text" transform="translate(-1.4338181018829346,-154.9499969482422)" fill="#ffffff"><path d="M21.37 169.45L39.05 169.45Q40.02 169.45 41.97 169.54Q43.92 169.64 44.89 169.64Q46.58 169.64 47.56 169.45Q49.25 169.64 51.39 169.64Q52.17 169.64 53.44 169.54Q54.70 169.45 56.07 169.32Q57.43 169.19 58.70 169.09Q59.97 168.99 60.74 168.99Q62.50 168.99 63.21 169.93Q63.93 170.87 64.58 172.89Q64.25 173.21 64.12 173.99Q63.99 174.77 63.77 175.55Q63.54 176.33 63.05 176.88Q62.56 177.44 61.52 177.31Q61.52 177.89 60.81 178.44Q60.09 179.00 60.09 180.16Q60.09 180.49 60.13 180.98Q60.16 181.46 60.16 181.72L54.38 182.76Q54.38 182.76 54.35 182.73Q54.31 182.70 54.25 182.70Q53.73 182.70 52.62 183.02Q51.52 183.35 50.22 183.74Q48.92 184.13 47.65 184.45Q46.39 184.78 45.54 184.78Q45.54 184.97 45.15 185.62Q44.76 186.27 44.34 187.15Q43.92 188.03 43.53 189.03Q43.14 190.04 43.14 190.88L41.90 194.85Q41.58 195.76 41.12 196.93Q40.67 198.10 40.08 199.40L38.72 202.45L38.01 204.85Q37.36 204.85 37.36 205.50L37.23 206.28Q37.10 207.26 36.87 208.04Q36.64 208.82 36.51 209.34Q36.32 209.92 36.32 209.60Q35.86 209.86 35.54 211.02Q35.21 212.19 34.92 213.56Q34.63 214.92 34.34 216.16Q34.04 217.39 33.59 217.78L32.94 218.76Q30.21 222.91 29.17 225.90Q28.72 226.29 28.13 227.14Q27.55 227.98 27.03 229.05Q26.51 230.12 26.12 231.33Q25.73 232.53 25.73 233.76Q25.73 234.41 25.79 234.74Q25.60 234.61 25.37 235.00Q25.14 235.39 24.88 235.94Q24.62 236.49 24.33 236.95Q24.04 237.40 23.65 237.40Q23.32 237.40 22.67 237.27Q22.02 237.14 21.70 237.14Q21.50 237.40 21.37 238.05Q21.24 238.70 21.21 239.32Q21.18 239.94 21.31 240.42Q21.44 240.91 21.70 240.78Q22.09 240.45 22.48 240.06Q22.87 239.68 23.32 239.35Q24.56 239.35 24.56 240.32Q24.56 241.10 23.78 241.62Q23.00 242.14 22.22 242.14Q21.24 242.14 20.04 241.53Q18.84 240.91 18.65 240.91Q18.52 241.04 18.32 241.59Q18.13 242.14 17.87 242.14Q17.54 242.14 17.28 241.88L16.24 243.25Q16.11 243.38 15.40 243.57Q14.68 243.77 14.23 243.96Q13.90 243.64 13.90 243.31Q13.90 243.25 14.23 242.57Q14.55 241.88 14.49 241.69Q13.77 240.52 13.48 240.91Q13.19 241.30 12.99 242.24Q12.80 243.18 12.51 244.13Q12.21 245.07 11.50 245.00L5.72 244.29Q4.16 244.09 4.16 244.87Q4.16 245.46 4.42 245.98Q4.55 246.43 3.90 246.11Q3.25 245.78 3.25 244.81Q3.25 243.96 3.80 242.60Q4.35 241.23 4.35 240.19Q2.79 240.19 2.79 236.17Q2.79 232.66 3.70 230.71L4.35 229.35Q4.74 228.63 4.48 228.14Q4.22 227.66 4.22 227.01Q4.22 227.14 4.71 226.03Q5.20 224.93 5.94 223.56Q6.69 222.20 7.50 221.03Q8.32 219.86 8.90 219.86Q9.55 219.86 10.13 220.12Q10.13 219.93 10.36 219.80Q10.59 219.67 10.59 219.54Q10.59 219.41 10.46 219.15L11.17 218.76Q11.43 218.69 11.17 218.17L10.85 217.78Q9.68 217.78 8.45 218.43Q8.25 217.85 8.25 217.07Q8.25 215.90 8.90 213.62Q9.55 211.35 10.91 208.17Q11.82 206.09 13.06 202.97Q14.29 199.85 15.92 195.63Q15.98 195.43 16.44 194.65Q16.89 193.87 17.35 192.90Q17.80 191.92 18.13 190.98Q18.45 190.04 18.32 189.52L19.30 188.55Q19.49 188.35 19.59 187.93Q19.69 187.51 20.01 187.18Q20.01 185.49 18.58 185.49Q17.80 185.49 16.40 185.82Q15.01 186.14 14.23 186.14Q12.60 186.14 10.78 185.49Q8.97 184.84 6.04 183.74L4.35 183.09Q4.35 182.37 4.03 182.37Q3.70 182.05 3.18 181.30Q2.66 180.55 2.21 179.61Q1.75 178.67 1.53 177.76Q1.30 176.85 1.62 176.27L2.34 174.90Q2.73 174.19 2.86 172.99Q2.99 171.78 3.22 170.65Q3.44 169.51 3.96 168.70Q4.48 167.89 5.59 167.89Q6.37 167.89 7.41 168.08L13.19 169.12Q15.33 169.51 17.41 169.51Q17.74 169.51 18.22 169.51Q18.71 169.51 19.36 169.45L21.37 169.45M63.21 169.45Q62.95 169.45 62.95 169.38Q62.95 169.38 63.05 169.28Q63.15 169.19 63.21 169.45M20.33 201.41Q20.53 201.73 20.66 201.73Q20.98 201.73 20.98 201.41Q20.98 201.28 20.76 201.05Q20.53 200.82 20.27 200.76Q19.88 200.89 19.82 201.08Q19.75 201.28 20.33 201.41M15.27 207.19Q14.68 207.19 15.07 207.39Q15.46 207.58 15.27 207.19M14.23 213.36Q14.03 213.56 14.03 213.82Q14.03 214.60 15.01 214.60Q16.05 214.60 16.05 213.75Q16.05 213.23 15.66 212.71Q15.27 212.19 14.88 212.19Q14.29 212.19 14.23 213.36M21.37 218.43Q21.11 218.43 21.11 218.50Q21.11 218.63 21.21 218.59Q21.31 218.56 21.37 218.43M6.04 226.23L6.04 225.58Q5.59 225.58 5.78 225.77Q5.98 225.97 6.04 226.23M14.23 230.32Q13.97 230.32 13.97 230.38Q13.97 230.38 14.07 230.51Q14.16 230.64 14.23 230.32M24.43 230.71Q24.04 230.58 23.97 230.71Q23.91 230.84 24.01 230.97Q24.10 231.10 24.27 231.10Q24.43 231.10 24.43 230.71M11.17 232.07Q12.47 232.07 12.47 231.55Q12.47 231.10 11.82 231.03Q11.17 230.97 11.17 232.07M23.78 235.13Q24.17 234.93 24.17 234.54Q24.17 233.89 23.65 233.89Q23.39 233.89 23.06 234.09Q23.00 234.02 23.13 234.22Q23.26 234.41 23.39 234.67Q23.52 234.93 23.65 235.09Q23.78 235.26 23.78 235.13M21.70 236.49Q22.09 236.62 22.15 236.62Q22.61 236.62 22.61 235.91Q22.61 234.74 22.09 234.74Q21.70 234.74 21.70 236.49ZM101.61 165.22Q102.91 165.48 104.27 165.74Q105.64 166.00 106.74 166.52Q107.85 167.04 108.53 167.92Q109.21 168.80 109.21 170.29Q109.21 170.74 108.98 171.62Q108.76 172.50 108.50 173.38Q108.24 174.25 108.01 175.03Q107.78 175.81 107.72 176.14L107.46 176.40Q106.03 177.83 106.03 178.54L105.38 179.19L104.66 180.23Q103.56 181.92 102.45 183.54Q101.35 185.17 99.14 185.17Q98.36 185.17 97.58 185.04Q96.80 184.91 95.83 184.91Q94.33 185.04 94.14 185.69L93.42 186.01Q92.19 186.53 91.60 186.53Q89.20 186.53 89.20 183.22Q89.20 180.88 91.47 175.23Q95.05 166.20 101.61 165.22M104.66 218.63L95.50 234.28L80.17 245.20Q76.21 244.74 73.74 241.82Q71.53 239.22 71.01 234.93Q71.33 233.83 71.33 233.63Q71.33 232.85 70.62 232.85Q69.97 232.85 69.35 233.41Q68.74 233.96 68.61 234.61L67.89 234.93Q67.83 234.93 67.66 234.45Q67.50 233.96 67.37 233.21Q67.24 232.46 67.14 231.65Q67.05 230.84 67.05 230.25Q67.05 224.67 69.26 224.73Q70.62 223.30 71.98 221.87Q73.35 220.44 74.71 219.02Q77.90 215.64 79.52 212.84Q80.49 211.15 81.44 209.53Q82.38 207.91 83.42 206.22Q84.59 204.33 85.89 202.87Q87.19 201.41 88.42 200.37Q89.27 199.72 90.43 199.04Q91.60 198.36 92.77 198.23Q94.14 198.03 95.34 198.62Q96.54 199.20 97.48 200.27Q98.43 201.34 98.98 202.84Q99.53 204.33 99.53 206.09Q99.01 208.88 97.58 211.87Q96.93 213.23 96.25 214.47Q95.57 215.70 94.76 217.23Q93.94 218.76 92.94 220.74Q91.93 222.72 90.56 225.45Q89.98 226.88 89.98 228.31Q89.98 229.28 90.37 230.19L104.66 218.63M80.82 244.16Q80.49 244.16 80.49 244.22Q80.49 244.22 80.62 244.35Q80.69 244.42 80.82 244.16ZM152.09 221.48Q154.23 225.19 154.23 227.85Q154.23 228.83 153.88 230.06Q153.52 231.29 152.54 231.29Q152.02 231.29 151.47 231.88Q150.92 232.46 150.37 233.15Q149.82 233.83 149.23 234.45Q148.65 235.06 148.00 235.13Q145.98 237.79 144.88 239.22Q143.77 240.65 143.64 240.78Q141.43 243.31 139.00 244.81Q136.56 246.30 133.38 245.98Q132.08 244.42 129.74 244.42Q128.64 244.42 127.27 244.61L126.56 245.33Q126.43 245.46 125.94 245.42Q125.45 245.39 125.39 245.39Q124.28 245.39 120.45 243.96L120.12 243.25Q119.67 242.21 118.70 241.10L117.07 239.29Q115.77 237.79 114.99 236.17Q114.21 234.54 114.08 232.59L113.95 230.64Q113.89 229.41 113.56 228.79Q113.24 228.18 112.85 227.72Q112.46 227.27 112.13 226.71Q111.81 226.16 111.81 225.06Q111.81 224.08 111.94 222.75Q112.07 221.42 111.94 220.51Q112.20 220.05 112.72 219.57Q113.24 219.08 113.95 218.43L119.61 210.83Q121.10 208.82 122.95 207.03Q124.80 205.24 126.56 203.49L127.60 202.84L128.25 201.47Q128.70 201.47 128.96 201.18Q129.22 200.89 129.42 200.53Q129.61 200.17 129.87 199.85Q130.13 199.53 130.65 199.40L132.01 199.07L133.05 198.03Q134.03 198.03 134.55 197.19Q135.07 196.34 136.11 196.34L136.76 195.69L139.88 195.30Q142.02 195.04 143.42 196.15Q144.81 197.25 147.02 198.75L147.67 199.07L148.00 199.72Q148.06 199.79 148.32 199.82Q148.58 199.85 148.65 199.85Q149.10 199.85 150.07 199.07L150.72 198.42Q151.05 198.16 151.54 198.16Q152.02 198.16 152.35 198.16Q152.54 198.16 152.90 198.03Q153.26 197.90 153.45 197.90Q153.65 197.90 154.17 198.03L157.22 199.40Q157.68 199.59 157.87 199.46L157.87 200.11L158.91 201.08Q158.91 201.86 159.46 203.00Q160.01 204.14 160.01 205.44Q160.01 206.35 159.59 207.52Q159.17 208.69 159.17 209.14Q159.17 209.47 159.24 209.60L158.20 210.63Q158.13 210.70 157.77 211.12Q157.42 211.54 156.96 212.06Q156.51 212.58 156.51 212.65L156.18 213.36Q154.62 214.14 154.75 214.14Q154.56 214.14 154.17 214.01L153.78 214.73Q153.45 214.66 153.16 214.63Q152.87 214.60 152.61 214.60Q151.83 214.60 151.34 215.08Q150.85 215.57 150.40 216.16Q149.95 216.74 149.39 217.33Q148.84 217.91 148.00 218.11L146.63 218.43L145.66 217.78Q145.59 217.72 145.23 217.78Q144.88 217.85 144.81 217.85Q142.54 217.85 142.54 214.92Q142.54 214.34 142.86 213.33Q143.19 212.32 143.61 211.25Q144.03 210.18 144.36 209.24Q144.68 208.30 144.68 207.78Q144.68 207.19 143.55 208.33Q142.41 209.47 141.11 211.12Q139.81 212.78 138.74 214.24Q137.67 215.70 137.80 215.70Q137.21 215.96 136.43 217.78L134.42 222.52Q134.16 223.11 134.03 223.63L133.64 225.12Q133.38 226.10 133.28 226.52Q133.18 226.94 133.15 227.14Q133.12 227.33 133.15 227.53Q133.18 227.72 133.18 228.31Q133.18 229.15 132.96 230.84Q132.73 232.53 132.73 233.37Q132.73 235.58 134.09 235.58Q134.87 235.58 135.78 235.13Q143.90 230.25 152.09 221.48ZM188.54 213.62L204.52 197.97Q204.84 197.64 205.56 197.41Q206.27 197.19 207.15 196.99Q208.03 196.80 208.87 196.70Q209.72 196.60 210.30 196.60Q213.87 196.60 215.24 197.93Q216.60 199.27 216.60 201.93Q216.60 204.72 215.76 205.83L215.04 207.52Q214.91 207.97 214.98 208.36Q215.11 209.60 215.17 210.02Q215.24 210.44 214.72 210.57L214.39 211.93Q214.33 212.39 213.68 212.75Q213.03 213.10 213.03 213.95L212.31 214.27Q211.73 214.53 210.79 215.31Q209.85 216.09 208.71 216.94Q207.57 217.78 206.37 218.50Q205.17 219.21 204.19 219.41L203.87 220.05Q203.35 220.05 202.34 219.31Q201.33 218.56 200.68 218.56Q199.78 218.56 199.78 220.64Q199.78 222.20 200.85 224.31Q201.92 226.42 203.15 228.96L217.45 220.05Q218.36 219.54 218.68 219.54Q219.27 219.54 219.27 220.38Q219.27 220.77 219.04 221.55Q218.81 222.33 218.45 223.17Q218.10 224.02 217.74 224.77Q217.38 225.51 217.12 225.84L218.10 227.20Q217.32 227.66 217.32 229.02Q217.32 229.74 217.51 230.45Q217.71 231.16 217.71 231.68Q217.71 232.40 216.96 232.95Q216.21 233.50 215.17 233.96Q214.13 234.41 213.13 234.80Q212.12 235.19 211.66 235.71Q212.38 236.04 212.38 237.08Q212.38 237.34 212.35 237.95Q212.31 238.57 212.31 238.77L210.95 238.77Q207.96 238.77 207.96 240.13Q207.96 241.04 208.12 240.94Q208.29 240.84 207.38 240.84Q206.27 240.84 206.27 242.14Q206.27 243.25 205.95 243.61Q205.62 243.96 205.13 244.09Q204.65 244.22 204.13 244.32Q203.61 244.42 203.15 244.94L202.50 245.91Q202.31 246.24 202.11 246.24L201.46 246.24Q201.46 246.37 200.91 246.76Q200.36 247.15 199.55 247.54Q198.74 247.93 197.83 248.25Q196.92 248.58 196.20 248.58Q194.90 248.58 193.80 247.83Q192.69 247.08 191.78 245.81Q190.87 244.55 190.06 242.89Q189.25 241.23 188.54 239.48L186.13 233.70Q185.61 232.53 184.77 232.53Q183.99 232.53 183.08 233.31Q182.17 234.09 181.23 235.26Q180.28 236.43 179.44 237.76Q178.60 239.09 178.01 240.13L177.30 241.17L177.36 241.62Q177.36 242.01 176.87 242.53Q176.39 243.05 176.26 243.18L174.24 243.57Q173.79 244.09 172.75 244.58Q171.71 245.07 171.19 245.07Q169.76 245.07 168.30 244.13Q166.84 243.18 165.63 241.79Q164.43 240.39 163.69 238.80Q162.94 237.21 162.94 235.91Q162.94 232.27 164.11 227.98Q165.28 223.69 167.62 218.37Q168.27 216.94 169.01 214.73Q169.76 212.52 170.86 209.53Q171.12 208.95 171.45 208.10Q171.77 207.26 172.23 206.15L184.12 176.53Q187.50 167.95 191.59 164.64Q192.43 163.99 193.54 163.47Q194.64 162.95 195.68 162.95Q196.79 162.95 197.73 163.37Q198.67 163.79 199.26 164.38L200.36 165.42Q200.88 165.94 201.79 166.33L202.50 166.72Q203.28 167.24 203.28 171.98Q203.28 174.77 202.21 177.79Q201.14 180.81 199.65 184.26Q198.61 186.73 197.47 189.23Q196.33 191.73 195.36 194.26Q194.58 196.34 193.34 199.04Q192.11 201.73 191.00 204.07Q188.47 209.47 188.47 212.45Q188.47 212.71 188.47 213.04Q188.47 213.36 188.54 213.62M213.68 224.47Q214.07 224.60 214.33 224.60Q215.30 224.60 215.30 223.95Q215.30 223.76 215.04 223.50Q213.61 223.50 213.61 224.08Q213.61 224.34 213.68 224.47M213.35 229.93Q214.07 229.93 214.26 229.70Q214.46 229.48 214.39 229.25Q214.33 229.02 214.04 228.79Q213.74 228.57 213.48 228.57Q213.16 228.57 213.16 229.02Q213.16 229.35 213.35 229.93ZM243.76 195.37L258.57 192.70Q259.68 192.51 260.13 192.51Q261.49 192.51 262.76 193.13Q264.03 193.74 265.00 194.78Q265.98 195.82 266.53 197.15Q267.08 198.49 267.08 199.92Q267.08 200.76 266.76 201.93Q262.53 215.57 254.15 221.29Q252.27 221.09 249.54 222.26Q246.62 223.43 244.99 223.43Q244.47 223.43 243.47 223.21Q242.46 222.98 241.87 222.98Q241.81 223.56 241.78 224.15Q241.74 224.73 241.74 225.25Q241.74 226.88 241.87 228.47Q242.00 230.06 242.33 231.33Q242.65 232.59 243.17 233.41Q243.69 234.22 244.41 234.22Q245.58 234.22 246.81 233.54Q248.05 232.85 249.02 232.14L249.35 231.49Q249.74 230.84 250.51 230.84Q251.03 230.84 251.65 231.00Q252.27 231.16 252.79 231.16L253.44 230.12Q253.57 229.80 254.80 229.80L255.52 227.40Q255.78 226.62 256.98 225.64Q258.18 224.67 258.90 224.67Q259.48 224.67 259.48 225.45Q259.48 225.90 259.12 226.32Q258.77 226.75 258.38 227.10Q257.99 227.46 257.63 227.79Q257.27 228.11 257.27 228.37Q257.27 229.09 258.90 229.09L259.22 228.44Q259.22 228.44 259.90 227.92Q260.58 227.40 260.91 227.92Q261.23 228.50 260.23 229.05Q259.22 229.61 257.92 230.25Q256.62 230.90 255.48 231.62Q254.35 232.33 254.35 233.31Q254.35 233.63 255.13 233.63Q255.97 233.63 256.72 233.24Q257.47 232.85 258.21 232.40Q258.96 231.94 259.71 231.55Q260.45 231.16 261.30 231.16L261.95 230.12Q262.66 230.12 262.66 229.41Q263.38 229.41 263.48 229.74Q263.57 230.06 263.22 230.58Q262.86 231.10 262.27 231.72Q261.69 232.33 261.04 232.98Q260.58 233.44 259.84 234.54Q259.09 235.65 258.21 236.78Q257.34 237.92 256.36 238.70Q255.39 239.48 254.48 239.29Q254.22 239.94 253.28 240.68Q252.33 241.43 251.07 242.08Q249.80 242.73 248.37 243.15Q246.94 243.57 245.71 243.57Q244.73 243.57 243.37 242.89Q242.00 242.21 240.90 241.69L240.51 240.97Q240.51 240.97 239.96 240.75Q239.41 240.52 238.50 240Q238.17 240.32 237.59 240.45Q237.00 240.58 236.42 240.68Q235.83 240.78 235.34 240.91Q234.86 241.04 234.73 241.36Q221.60 237.86 221.60 226.88Q221.60 225.71 221.80 224.34Q225.18 216.03 228.85 209.86Q232.52 203.68 236.55 199.72Q240.31 195.95 243.76 195.37M243.24 210.05Q243.56 210.05 243.56 210.37Q243.56 210.57 243.50 210.70L243.24 211.41Q243.17 211.54 242.75 212.26Q242.33 212.97 242.20 212.97Q241.94 212.97 241.58 212.52Q241.22 212.06 240.96 212.06Q240.38 212.06 240.38 213.36Q240.38 214.66 240.90 215.18L241.55 216.87Q241.74 217.39 241.71 217.91Q241.68 218.43 241.68 218.95Q241.68 220.44 242.91 220.25Q244.60 217.98 245.64 216.51Q246.68 215.05 247.14 214.34Q249.02 211.22 249.74 207.65L250.38 207.32Q250.38 206.87 250.81 205.70Q251.23 204.53 251.75 203.23Q252.27 201.93 252.69 200.76Q253.11 199.59 253.11 199.07Q253.11 197.77 251.75 198.49Q249.22 199.66 247.27 202.87Q245.32 206.09 243.24 210.05M261.62 224.34Q261.30 224.34 261.30 224.02Q261.62 223.43 261.62 223.76Q261.62 224.08 261.62 224.34M264.35 228.76Q264.03 228.76 264.03 228.70Q264.03 228.70 264.16 228.57Q264.22 228.44 264.35 228.76M239.54 235.19Q240.18 235.58 240.57 235.58Q240.83 235.58 240.83 235.32Q240.83 234.74 240.18 234.48Q239.54 234.22 239.54 235.19M239.54 236.95Q239.86 236.95 239.86 236.59Q239.86 236.23 239.70 235.87Q239.54 235.52 239.37 235.29Q239.21 235.06 239.21 235.39Q239.21 235.52 239.44 235.87Q239.67 236.23 239.67 236.49Q239.67 236.69 239.54 236.95ZM310.02 204.07L313.40 203.03L315.16 207.19Q314.64 207.32 313.99 207.61Q313.34 207.91 312.49 208.23L305.87 211.22Q304.89 211.67 303.85 212.10Q302.81 212.52 302.81 212.78Q302.81 213.23 302.75 213.36Q302.68 213.49 302.23 214.40Q301.77 215.38 301.51 215.08Q301.25 214.79 300.80 213.56L300.15 213.23L299.83 213.88L300.47 216.29Q300.47 216.29 300.25 216.97Q300.02 217.65 299.63 218.89Q299.31 219.67 299.08 219.96Q298.85 220.25 298.46 219.02L297.75 218.69Q296.64 218.17 296.02 218.43Q295.41 218.69 295.41 219.60Q295.41 221.29 296.64 221.29Q297.10 221.29 297.42 221.03Q297.94 221.22 297.94 221.61Q297.94 222.46 297.26 223.60Q296.58 224.73 295.93 224.73Q295.54 224.73 294.76 224.57Q293.98 224.41 293.33 224.47Q293.46 224.93 293.98 225.87Q294.50 226.81 294.50 227.27L294.04 228.05Q293.59 228.89 293.43 229.44Q293.26 230.00 293.26 230.45Q293.26 230.97 293.36 231.55Q293.46 232.14 293.46 233.05Q293.46 235.06 290.60 239.09L288.91 241.43Q288.78 241.56 288.78 241.69Q288.78 241.82 288.88 241.92Q288.98 242.01 288.98 242.01Q288.85 242.14 288.59 242.14Q288.59 243.83 289.30 244.16Q290.14 244.16 290.01 244.68Q289.89 245.20 289.17 246.04Q288.46 246.89 287.29 248.02Q286.12 249.16 284.88 250.33L284.17 250.65Q283.06 251.17 282.09 251.82Q281.11 252.47 280.01 252.47Q279.17 252.47 278.29 251.82Q277.41 251.17 276.70 250.17Q275.98 249.16 275.56 247.96Q275.14 246.76 275.14 245.59Q275.14 243.44 275.66 241.56Q276.18 239.68 276.18 238.77Q276.18 238.57 276.08 238.21Q275.98 237.86 275.98 237.66Q275.98 237.21 276.37 237.01Q276.37 236.82 276.47 235.81Q276.57 234.80 276.76 233.50Q276.96 232.20 277.22 231.94Q277.74 229.09 278.71 227.27Q279.69 225.45 280.14 223.11Q280.14 223.04 280.63 222.04Q281.11 221.03 281.67 219.76Q282.22 218.50 282.67 217.33Q283.13 216.16 283.13 215.83Q283.13 214.79 282.51 214.76Q281.89 214.73 281.18 214.73Q279.10 214.73 274.88 211.15Q272.02 208.82 271.43 208.82Q271.43 208.82 271.21 209.08Q270.98 209.34 270.69 209.60Q270.39 209.86 270.17 209.86Q269.94 209.86 269.94 209.40Q269.94 209.01 270.98 208.30Q272.02 207.58 273.45 206.90Q274.88 206.22 276.27 205.73Q277.67 205.24 278.45 205.24Q279.10 205.24 279.10 205.76Q279.30 205.83 279.78 205.79Q280.27 205.76 280.66 205.76Q281.05 205.76 281.18 205.92Q281.31 206.09 280.85 206.54Q280.79 206.61 280.98 206.61Q281.76 206.61 282.93 206.41Q284.10 206.22 285.24 205.89Q286.38 205.57 287.32 205.08Q288.26 204.59 288.59 204.07L298.79 185.69Q300.15 185.23 301.71 185.23Q305.09 185.23 307.33 187.64Q309.57 190.04 309.57 193.42Q309.57 196.08 307.95 198.29Q307.95 198.75 307.30 199.82Q306.65 200.89 306.65 201.80Q306.65 203.29 307.59 203.91Q308.53 204.53 310.02 204.07M288.26 223.76Q288.91 223.76 289.11 223.50Q289.30 223.24 289.17 222.91Q289.04 222.59 288.78 222.33Q288.52 222.07 288.33 222.07Q288.00 222.07 288.00 222.52Q288.00 223.04 288.26 223.76M285.53 241.10Q286.18 241.75 286.51 241.75Q287.03 241.75 287.22 240.94Q287.42 240.13 287.55 239.42L288.26 239.09Q290.40 235.45 290.40 233.89Q290.40 232.92 289.50 232.92Q289.69 232.92 289.01 233.96Q288.33 235.00 287.42 236.36Q286.51 237.73 285.69 239.06Q284.88 240.39 284.88 240.97Q284.88 241.17 285.14 241.17Q285.34 241.17 285.53 241.10Z" fill="#ffffff" style="fill: rgb(255, 255, 255);"></path></g></svg>